<svg xmlns="http://www.w3.org/2000/svg" xmlns:xlink="http://www.w3.org/1999/xlink" viewBox="0 0 175 34" xmlns:v="https://vecta.io/nano"><path d="M1 3a2 2 0 0 1 2-2h29a2 2 0 0 1 2 2v29a2 2 0 0 1-2 2H3a2 2 0 0 1-2-2V3zm35 0a2 2 0 0 1 2-2h29a2 2 0 0 1 2 2v29a2 2 0 0 1-2 2H38a2 2 0 0 1-2-2V3zm35 0a2 2 0 0 1 2-2h29a2 2 0 0 1 2 2v29a2 2 0 0 1-2 2H73a2 2 0 0 1-2-2V3zm36 0a2 2 0 0 1 2-2h29a2 2 0 0 1 2 2v29a2 2 0 0 1-2 2h-29a2 2 0 0 1-2-2V3zm35 0a2 2 0 0 1 2-2h29a2 2 0 0 1 2 2v29a2 2 0 0 1-2 2h-29a2 2 0 0 1-2-2V3z" fill="transparent"/><path d="M0 2a2 2 0 0 1 2-2h29a2 2 0 0 1 2 2v29a2 2 0 0 1-2 2H2a2 2 0 0 1-2-2V2zm35 0a2 2 0 0 1 2-2h29a2 2 0 0 1 2 2v29a2 2 0 0 1-2 2H37a2 2 0 0 1-2-2V2zm35 0a2 2 0 0 1 2-2h29a2 2 0 0 1 2 2v29a2 2 0 0 1-2 2H72a2 2 0 0 1-2-2V2zm36 0a2 2 0 0 1 2-2h29a2 2 0 0 1 2 2v29a2 2 0 0 1-2 2h-29a2 2 0 0 1-2-2V2zm35 0a2 2 0 0 1 2-2h29a2 2 0 0 1 2 2v29a2 2 0 0 1-2 2h-29a2 2 0 0 1-2-2V2z" fill="#FFFFFF"/><g fill="#E5E5E5"><use xlink:href="#B"/><use xlink:href="#C"/><use xlink:href="#C" x="35"/><use xlink:href="#D"/><use xlink:href="#D" x="35"/></g><g fill="#F4C15C"><use xlink:href="#B"/><use xlink:href="#C"/><use xlink:href="#C" x="35"/><use xlink:href="#D"/><path d="M158 4a.94.94 0 0 0-.861.569l-2.899 6.362c-.139.305-.416.516-.736.56l-6.674.921c-.515.071-.83.527-.83.996h0a1 1 0 0 0 .298.718l4.882 4.853a1.03 1.03 0 0 1 .282.906l-1.226 6.931c-.146.826.688 1.46 1.393 1.06l5.916-3.363c.284-.161.626-.161.91 0l5.916 3.363c.705.401 1.539-.234 1.393-1.06l-1.226-6.931a1.03 1.03 0 0 1 .282-.906l1.18-1.174v-5.832l-3.504-.484c-.32-.044-.597-.255-.736-.56l-2.899-6.362A.94.94 0 0 0 158 4z"/><path d="M158 4a.94.94 0 0 0-.861.569l-2.899 6.362c-.139.305-.416.516-.736.56l-6.674.921c-.515.071-.83.527-.83.996h0a1 1 0 0 0 .298.718l4.882 4.853a1.03 1.03 0 0 1 .282.906l-1.226 6.931c-.146.826.688 1.46 1.393 1.06l5.916-3.363c.284-.161.626-.161.91 0L164 27.666V11.699l-1.504-.208c-.32-.044-.597-.255-.736-.56l-2.899-6.362A.94.94 0 0 0 158 4z"/><path d="M158 4a.94.94 0 0 0-.861.569l-2.899 6.362c-.139.305-.416.516-.736.56l-6.674.921c-.515.071-.83.527-.83.996h0a1 1 0 0 0 .298.718l4.882 4.853a1.03 1.03 0 0 1 .282.906l-1.226 6.931c-.146.826.688 1.46 1.393 1.06l5.916-3.363c.284-.161.626-.161.91 0L161 25.96V9.263l-2.139-4.695A.94.94 0 0 0 158 4z"/><path d="M158 4a.94.94 0 0 0-.861.569l-2.899 6.362c-.139.305-.416.516-.736.56l-6.674.921c-.515.071-.83.527-.83.996h0a1 1 0 0 0 .298.718l4.882 4.853a1.03 1.03 0 0 1 .282.906l-1.226 6.931c-.146.826.688 1.46 1.393 1.06l5.916-3.363a.92.92 0 0 1 .455-.121V4z"/><path d="M146 13.408c0-.469.315-.925.83-.996l6.674-.921c.32-.044.597-.255.736-.56l.76-1.667V25.96l-3.371 1.916c-.705.401-1.539-.234-1.393-1.06l1.226-6.931a1.03 1.03 0 0 0-.282-.906l-4.882-4.853a1 1 0 0 1-.298-.718h0z"/><path d="M146 13.408c0-.469.315-.925.83-.996l5.17-.714v15.967l-.371.211c-.705.401-1.539-.234-1.393-1.06l1.226-6.931a1.03 1.03 0 0 0-.282-.906l-4.882-4.853a1 1 0 0 1-.298-.718h0z"/><path d="M146 13.408c0-.469.315-.925.83-.996l3.17-.437v5.832l-3.702-3.68a1 1 0 0 1-.298-.718h0z"/><path d="M146 13.408c0-.469.315-.925.83-.996l1.17-.161v3.567l-1.702-1.692a1 1 0 0 1-.298-.718h0z"/></g><defs ><path id="B" d="M15.139 4.569c.345-.758 1.376-.758 1.721 0l2.899 6.362c.139.305.416.516.736.56l6.674.921c.795.11 1.114 1.136.532 1.714l-4.882 4.853a1.03 1.03 0 0 0-.281.906l1.226 6.931c.146.826-.688 1.46-1.393 1.06l-5.916-3.363c-.284-.161-.626-.161-.91 0l-5.916 3.363c-.705.401-1.539-.234-1.393-1.06l1.226-6.931a1.03 1.03 0 0 0-.281-.906l-4.882-4.853c-.582-.578-.263-1.605.532-1.714l6.674-.921c.32-.044.597-.255.736-.56l2.899-6.362z"/><path id="C" d="M51.139 4.569c.346-.758 1.376-.758 1.721 0l2.899 6.362c.139.305.416.516.736.56l6.674.921c.795.11 1.114 1.136.532 1.714l-4.882 4.853a1.03 1.03 0 0 0-.281.906l1.226 6.931c.146.826-.688 1.46-1.393 1.06l-5.916-3.363c-.284-.161-.626-.161-.91 0l-5.916 3.363c-.705.401-1.539-.234-1.393-1.06l1.226-6.931a1.03 1.03 0 0 0-.281-.906l-4.882-4.853c-.582-.578-.263-1.605.532-1.714l6.674-.921c.32-.044.597-.255.736-.56l2.899-6.362z"/><path id="D" d="M122.14 4.569c.346-.758 1.376-.758 1.722 0l2.899 6.362c.139.305.416.516.736.56l6.674.921c.795.11 1.114 1.136.532 1.714l-4.882 4.853a1.03 1.03 0 0 0-.282.906l1.226 6.931c.146.826-.688 1.46-1.393 1.06l-5.916-3.363c-.284-.161-.626-.161-.91 0l-5.916 3.363c-.705.401-1.539-.234-1.393-1.06l1.226-6.931a1.03 1.03 0 0 0-.282-.906l-4.882-4.853c-.582-.578-.263-1.605.532-1.714l6.674-.921c.32-.044.597-.255.736-.56l2.899-6.362z"/></defs></svg>