<svg xmlns="http://www.w3.org/2000/svg" fill="none" viewBox="0 0 130 130"  xmlns:v="https://vecta.io/nano"><g clip-path="url(#B)" fill-rule="evenodd"><path d="M0 64.807C0 29.345 28.967.598 64.699.598s64.7 28.747 64.7 64.209-28.968 64.208-64.7 64.208S0 100.268 0 64.807z" fill="#1d3653"/><g fill="#fefefe"><path d="M23.139 72.383h-3.251v-1.226c0-.854.16-1.435.476-1.728.323-.3.838-.452 1.527-.452.026.001.15.01.695.076.68.171 1.314.131 1.772-.348.278-.291.42-.634.42-1.02a1.4 1.4 0 0 0-.252-.8c-.16-.233-.367-.415-.616-.54a5.95 5.95 0 0 0-2.681-.617 4.96 4.96 0 0 0-2.264.546c-.728.369-1.325.964-1.773 1.768-.445.793-.669 1.813-.669 3.029v1.312h-1.342a1.47 1.47 0 0 0-1.049.42c-.296.283-.445.644-.445 1.074 0 .408.147.763.439 1.055a1.44 1.44 0 0 0 1.055.44h1.342v10.977a1.61 1.61 0 0 0 .483 1.184c.321.322.719.484 1.185.484a1.66 1.66 0 0 0 1.193-.479c.334-.32.504-.72.504-1.189V75.372h3.251c.43 0 .791-.15 1.074-.446a1.47 1.47 0 0 0 .42-1.049c0-.427-.143-.786-.426-1.069s-.642-.425-1.068-.425zm12.764 6.163H28.17c.088-.707.298-1.312.627-1.804.383-.576.87-1.006 1.442-1.275 1.171-.549 2.396-.549 3.566 0 .574.269 1.065.7 1.459 1.279.335.489.549 1.094.639 1.8zm.02-5.396c-1.097-.702-2.409-1.057-3.901-1.057-1.592 0-2.956.382-4.055 1.135a6.83 6.83 0 0 0-2.444 2.964c-.519 1.197-.782 2.521-.782 3.935 0 2.52.702 4.509 2.087 5.914s3.328 2.12 5.773 2.12c1.186 0 2.174-.112 2.938-.332a10.89 10.89 0 0 0 2.308-.99c.621-.357.936-.825.936-1.388a1.41 1.41 0 0 0-.466-1.08c-.301-.274-.656-.414-1.058-.414a1.52 1.52 0 0 0-.683.154 8.45 8.45 0 0 1-1.707.638c-.573.147-1.259.221-2.036.221-1.425 0-2.541-.349-3.318-1.036-.688-.611-1.133-1.455-1.323-2.514h9.386c.506 0 .922-.165 1.233-.489s.464-.717.464-1.18c0-1.36-.285-2.636-.848-3.792a6.84 6.84 0 0 0-2.504-2.809zm16.358 5.396h-7.733c.088-.707.298-1.312.626-1.804.384-.576.87-1.006 1.442-1.275 1.171-.549 2.397-.549 3.566 0 .575.269 1.066.7 1.46 1.279.335.489.549 1.094.639 1.8zm.02-5.396c-1.097-.702-2.41-1.057-3.902-1.057-1.591 0-2.956.382-4.055 1.135a6.84 6.84 0 0 0-2.444 2.964c-.518 1.197-.782 2.521-.782 3.935 0 2.52.702 4.509 2.088 5.914s3.328 2.12 5.772 2.12c1.186 0 2.174-.112 2.939-.332.758-.22 1.534-.553 2.308-.99.62-.357.936-.825.936-1.388a1.41 1.41 0 0 0-.466-1.08c-.301-.274-.656-.414-1.058-.414-.249 0-.478.052-.684.154a8.43 8.43 0 0 1-1.707.638c-.573.147-1.258.221-2.036.221-1.425 0-2.54-.349-3.317-1.036-.688-.611-1.133-1.455-1.323-2.514h9.386c.506 0 .921-.165 1.232-.489a1.64 1.64 0 0 0 .464-1.18c0-1.36-.285-2.636-.847-3.792a6.85 6.85 0 0 0-2.504-2.809zM65.24 84.97c-1.336 0-2.376-.408-3.179-1.247-.797-.832-1.2-2.042-1.2-3.596s.403-2.762 1.2-3.595c.804-.838 1.844-1.247 3.179-1.247a5.14 5.14 0 0 1 2.338.554 6.81 6.81 0 0 1 1.868 1.395v5.788c-.545.574-1.173 1.043-1.868 1.394a5.13 5.13 0 0 1-2.338.554zm5.903-19.098c-.463 0-.864.161-1.194.479s-.503.731-.503 1.219v6.24c-1.335-1.14-2.873-1.717-4.582-1.717-1.254 0-2.458.323-3.58.959s-2.047 1.58-2.742 2.8-1.046 2.656-1.046 4.275.351 3.059 1.046 4.277 1.617 2.161 2.742 2.798 2.325.959 3.58.959c1.711 0 3.249-.577 4.584-1.717a1.58 1.58 0 0 0 .501 1.094c.33.318.731.479 1.194.479s.865-.162 1.185-.484a1.62 1.62 0 0 0 .483-1.184V67.57a1.67 1.67 0 0 0-.478-1.195c-.322-.334-.722-.503-1.19-.503zm10.619 19.242c-1.001 0-1.713-.183-2.113-.543-.396-.354-.588-.814-.588-1.406 0-1.274 1.347-1.92 4.003-1.92h2.788v1.925c-.492.537-1.097.995-1.8 1.364a4.89 4.89 0 0 1-2.29.58zm4.599-12.16c-.97-.571-2.166-.861-3.557-.861-1.739 0-3.472.36-5.148 1.071-.639.269-.977.766-.977 1.436 0 .41.144.759.426 1.039a1.38 1.38 0 0 0 1.011.427 2.02 2.02 0 0 0 .493-.076 15.87 15.87 0 0 1 1.851-.51c.542-.11 1.175-.167 1.881-.167 1.233 0 2.139.252 2.692.746.523.467.797 1.254.818 2.342h-3.134c-2.251 0-3.994.453-5.183 1.347a4.42 4.42 0 0 0-1.838 3.707c0 .934.233 1.775.694 2.497a4.48 4.48 0 0 0 1.872 1.652c.77.369 1.616.557 2.517.557 1.982 0 3.685-.582 5.075-1.732a1.6 1.6 0 0 0 .481 1.104 1.62 1.62 0 0 0 1.186.483c.462 0 .863-.161 1.193-.478a1.59 1.59 0 0 0 .503-1.19v-8.189c0-1.057-.231-2.051-.69-2.957-.464-.918-1.193-1.674-2.166-2.248zm13.689 11.899c-.161 0-.296.013-.413.038l-.271.065a3.66 3.66 0 0 1-1.051.158c-.474 0-.866-.086-1.165-.256-.289-.164-.35-.696-.35-1.114v-8.372h2.903c.43 0 .792-.151 1.076-.447a1.47 1.47 0 0 0 .418-1.049c0-.425-.142-.785-.425-1.069s-.642-.425-1.069-.425H96.8v-1.949c0-.244-.089-.469-.256-.652-.349-.381-.925-.412-1.408.072l-3.903 3.821c-.264.205-.403.475-.403.782 0 .251.092.475.266.648s.398.268.65.268h1.689v8.603c0 2.738 1.587 4.186 4.591 4.186.898 0 1.757-.187 2.57-.563.713-.371.862-.932.862-1.337 0-.391-.145-.729-.431-1.003-.283-.268-.611-.405-.977-.405zm16.18-12.113c-.321-.333-.721-.502-1.189-.502-.493 0-1.162.189-1.554 1.094l-4.2 10.167-4.123-10.227c-.123-.295-.328-.543-.607-.738a1.63 1.63 0 0 0-.946-.296c-.469 0-.869.169-1.19.502s-.478.731-.478 1.194c0 .22.048.452.143.69l5.384 13.117-1.829 4.7c-.073.195-.11.394-.11.592 0 .443.156.83.464 1.15a1.53 1.53 0 0 0 1.146.489c.478 0 1.134-.194 1.554-1.122l7.903-18.995c.074-.194.111-.403.111-.621a1.67 1.67 0 0 0-.479-1.194z"/></g><path d="M55.034 59.268l-.302-.303a5.92 5.92 0 0 1 0-8.366l24.867-24.866a5.92 5.92 0 0 1 8.366 0l.302.302a5.92 5.92 0 0 1 0 8.366L63.4 59.268a5.92 5.92 0 0 1-8.366 0z" fill="#f3c05c"/><path d="M64.075 40.561l10.271 7.044-11.342 11.534a6.07 6.07 0 0 1-4.339 1.822c-1.554 0-3.108-.593-4.3-1.782a6.19 6.19 0 0 1-.039-8.703l9.749-9.915z" fill="url(#A)" fill-opacity=".7"/><path d="M62.357 51.594L50.575 39.867c-2.331-2.32-6.129-2.534-8.568-.325a6.08 6.08 0 0 0-.214 8.825l11.903 11.848a6.12 6.12 0 0 0 8.66 0l6.643-6.612-1.43-.035c-1.913-.047-3.752-.743-5.212-1.974z" fill="#f9d77d"/></g><defs><linearGradient id="A" x1="67.619" x2="55.78" y1="46.928" y2="60.481" gradientUnits="userSpaceOnUse"><stop stop-color="#7f4f12" stop-opacity="0" offset="0"/><stop stop-color="#d4890b" offset="1"/></linearGradient><clipPath id="B"><path fill="#fff" d="M0 0h130v130H0z"/></clipPath></defs></svg>